<svg id="Capa_1" enable-background="new 0 0 512 512" height="512" viewBox="0 0 512 512" width="512" xmlns="http://www.w3.org/2000/svg"><g><path d="m256 241c-140.61 0-256 115.39-256 256v15h151v-15c0-57.891 47.109-106 105-106s105 48.109 105 106v15h151v-15c0-140.61-115.39-256-256-256z" fill="#f0f7ff"/><path d="m361 497v15h151v-15c0-140.61-115.39-256-256-256v150c57.891 0 105 48.109 105 106z" fill="#dfe7f4"/><path d="m391 0c-66.167 0-120 54.833-120 121s53.833 120 120 120 121-53.833 121-120-54.833-121-121-121z" fill="#ff80aa"/><path d="m512 121c0-66.167-54.833-121-121-121v241c66.167 0 121-53.833 121-120z" fill="#f37"/><path d="m121 0c-66.167 0-121 54.833-121 121s54.833 120 121 120 120-53.833 120-120-53.833-121-120-121z" fill="#ffe666"/><path d="m241 121c0-66.167-53.833-121-120-121v241c66.167 0 120-53.833 120-120z" fill="#fabe2c"/><path d="m346 76h30v30h-30z" fill="#47568c"/><path d="m406 76h30v30h-30z" fill="#29376d"/><path d="m76 76h30v30h-30z" fill="#47568c"/><path d="m136 76h30v30h-30z" fill="#29376d"/><path d="m149.301 130.99c-4.248 11.968-15.615 20.01-28.301 20.01s-24.053-8.042-28.301-20.01l-28.271 10.02c8.481 23.921 31.216 39.99 56.572 39.99s48.091-16.069 56.572-39.99z" fill="#47568c"/><path d="m177.572 141.01-28.271-10.02c-4.248 11.968-15.615 20.01-28.301 20.01v30c25.356 0 48.091-16.069 56.572-39.99z" fill="#29376d"/><path d="m391 121c-25.356 0-48.091 16.069-56.572 39.99l28.271 10.02c4.248-11.968 15.615-20.01 28.301-20.01s24.053 8.042 28.301 20.01l28.271-10.02c-8.481-23.921-31.216-39.99-56.572-39.99z" fill="#47568c"/><path d="m419.301 171.01 28.271-10.02c-8.481-23.921-31.216-39.99-56.572-39.99v30c12.686 0 24.053 8.042 28.301 20.01z" fill="#29376d"/><path d="m256 271c-62.031 0-118.129 25.384-158.871 66.129l22.491 52.489 41.279 11.281c24.444-24.449 57.874-39.899 95.101-39.899s70.657 15.45 95.101 39.899l45.267-15.267 18.503-48.503c-40.742-40.745-96.84-66.129-158.871-66.129z" fill="#fabe2c"/><path d="m396.369 385.631 18.503-48.503c-40.743-40.744-96.841-66.128-158.872-66.128v90c37.227 0 70.657 15.45 95.101 39.899z" fill="#ff9100"/><path d="m256 421h-15v91h15 15v-91z" fill="#47568c"/><path d="m256 421h15v91h-15z" fill="#29376d"/><path d="m390.165 482h91.337c-3.71-56.069-29.202-107.441-66.63-144.871l-63.77 63.77c21.108 21.114 35.595 49.861 39.063 81.101z" fill="#26bfa6"/><g><path d="m30.498 482h91.337c3.468-31.24 17.955-59.987 39.064-81.101l-63.77-63.77c-37.429 37.43-62.921 88.802-66.631 144.871z" fill="#ff80aa"/></g></g></svg>